<svg xmlns="http://www.w3.org/2000/svg" viewBox="0 0 595.28 827.8"><defs><style>.cls-1{fill:#313266;opacity:0.2;}</style></defs><title>Asset 1</title><g id="Layer_2" data-name="Layer 2"><g id="Layer_1-2" data-name="Layer 1"><path class="cls-1" d="M40.91,0,11.44,13.74A19.79,19.79,0,0,0,1.86,40.06l7.6,16.29a19.8,19.8,0,0,0,26.32,9.58L177.18,0Z"/><path class="cls-1" d="M586,0l-6.71,3.13A19.81,19.81,0,0,1,557.76,0H237.9L243,11a19.79,19.79,0,0,1-9.58,26.32L210.88,47.82a19.81,19.81,0,0,0-9.58,26.32l7.6,16.3A19.81,19.81,0,0,0,235.22,100L337.78,52.19a19.81,19.81,0,0,1,26.32,9.58l7.6,16.3a19.8,19.8,0,0,1-9.58,26.31L137.51,209.12a19.81,19.81,0,0,0-9.58,26.32l7.6,16.3a19.81,19.81,0,0,0,26.32,9.58l144.61-67.44a19.81,19.81,0,0,1,26.32,9.58l7.6,16.3a19.81,19.81,0,0,1-9.58,26.32l-48.21,22.47A19.81,19.81,0,0,0,273,294.87l7.6,16.3a19.81,19.81,0,0,0,26.32,9.58L435.13,261a19.8,19.8,0,0,1,26.32,9.57l7.6,16.3a19.81,19.81,0,0,1-9.58,26.32l-86.15,40.17a19.81,19.81,0,0,0-9.58,26.32l7.6,16.3a19.81,19.81,0,0,0,26.32,9.58l25.64-12a19.81,19.81,0,0,1,26.32,9.58l7.6,16.29a19.81,19.81,0,0,1-9.58,26.32L254.82,535.67A19.81,19.81,0,0,0,245.24,562l7.6,16.3a19.81,19.81,0,0,0,26.32,9.58l67.69-31.57a19.81,19.81,0,0,1,26.32,9.58l7.6,16.3a19.8,19.8,0,0,0,26.31,9.58l149.74-69.83a19.81,19.81,0,0,1,26.32,9.58l7.6,16.3a19.81,19.81,0,0,1-9.58,26.32l-59.48,27.73a19.81,19.81,0,0,0-9.58,26.32l7.6,16.3a19.81,19.81,0,0,1-9.58,26.32L393.2,725.32a19.81,19.81,0,0,0-9.58,26.32l7.6,16.29a19.81,19.81,0,0,0,26.32,9.58L465.74,755a19.81,19.81,0,0,1,26.32,9.58l7.6,16.3A19.81,19.81,0,0,0,526,790.49a19.78,19.78,0,0,1,26.31,9.58l7.6,16.29a19.8,19.8,0,0,0,26.32,9.58l9.07-4.23V0Z"/></g></g></svg>